<mxfile host="Electron" modified="2024-07-19T01:08:03.540Z" agent="Mozilla/5.0 (Macintosh; Intel Mac OS X 10_15_7) AppleWebKit/537.36 (KHTML, like Gecko) draw.io/24.2.5 Chrome/120.0.6099.109 Electron/28.1.0 Safari/537.36" etag="YMKU6RB9cYsJxTG1RTLh" version="24.2.5" type="device">
  <diagram name="Page-1" id="kAZAMrEDLjiafXalER38">
    <mxGraphModel dx="844" dy="599" grid="0" gridSize="10" guides="1" tooltips="1" connect="1" arrows="1" fold="1" page="0" pageScale="1" pageWidth="850" pageHeight="1100" math="0" shadow="0">
      <root>
        <mxCell id="0" />
        <mxCell id="1" parent="0" />
        <mxCell id="XJ5a9MvPNYXjK2-B60-z-6" style="edgeStyle=orthogonalEdgeStyle;rounded=0;hachureGap=4;orthogonalLoop=1;jettySize=auto;html=1;exitX=0.5;exitY=1;exitDx=0;exitDy=0;entryX=0.5;entryY=0;entryDx=0;entryDy=0;fontFamily=Architects Daughter;fontSource=https%3A%2F%2Ffonts.googleapis.com%2Fcss%3Ffamily%3DArchitects%2BDaughter;strokeWidth=2;flowAnimation=1;" edge="1" parent="1" source="XJ5a9MvPNYXjK2-B60-z-1" target="XJ5a9MvPNYXjK2-B60-z-3">
          <mxGeometry relative="1" as="geometry" />
        </mxCell>
        <mxCell id="XJ5a9MvPNYXjK2-B60-z-1" value="Digital Transformation" style="rounded=1;whiteSpace=wrap;html=1;sketch=1;hachureGap=4;jiggle=2;curveFitting=1;fontFamily=Architects Daughter;fontSource=https%3A%2F%2Ffonts.googleapis.com%2Fcss%3Ffamily%3DArchitects%2BDaughter;fontSize=20;" vertex="1" parent="1">
          <mxGeometry x="430" y="250" width="230" height="70" as="geometry" />
        </mxCell>
        <mxCell id="XJ5a9MvPNYXjK2-B60-z-5" style="edgeStyle=orthogonalEdgeStyle;rounded=0;hachureGap=4;orthogonalLoop=1;jettySize=auto;html=1;exitX=0.5;exitY=1;exitDx=0;exitDy=0;entryX=0.5;entryY=0;entryDx=0;entryDy=0;fontFamily=Architects Daughter;fontSource=https%3A%2F%2Ffonts.googleapis.com%2Fcss%3Ffamily%3DArchitects%2BDaughter;strokeWidth=2;flowAnimation=1;" edge="1" parent="1" source="XJ5a9MvPNYXjK2-B60-z-2" target="XJ5a9MvPNYXjK2-B60-z-1">
          <mxGeometry relative="1" as="geometry" />
        </mxCell>
        <mxCell id="XJ5a9MvPNYXjK2-B60-z-2" value="Market Transformation" style="rounded=1;whiteSpace=wrap;html=1;sketch=1;hachureGap=4;jiggle=2;curveFitting=1;fontFamily=Architects Daughter;fontSource=https%3A%2F%2Ffonts.googleapis.com%2Fcss%3Ffamily%3DArchitects%2BDaughter;fontSize=20;" vertex="1" parent="1">
          <mxGeometry x="430" y="90" width="230" height="70" as="geometry" />
        </mxCell>
        <mxCell id="XJ5a9MvPNYXjK2-B60-z-7" style="edgeStyle=orthogonalEdgeStyle;rounded=0;hachureGap=4;orthogonalLoop=1;jettySize=auto;html=1;exitX=0.5;exitY=1;exitDx=0;exitDy=0;entryX=0.5;entryY=0;entryDx=0;entryDy=0;fontFamily=Architects Daughter;fontSource=https%3A%2F%2Ffonts.googleapis.com%2Fcss%3Ffamily%3DArchitects%2BDaughter;strokeWidth=2;flowAnimation=1;" edge="1" parent="1" source="XJ5a9MvPNYXjK2-B60-z-3" target="XJ5a9MvPNYXjK2-B60-z-4">
          <mxGeometry relative="1" as="geometry" />
        </mxCell>
        <mxCell id="XJ5a9MvPNYXjK2-B60-z-3" value="IT Transformation" style="rounded=1;whiteSpace=wrap;html=1;sketch=1;hachureGap=4;jiggle=2;curveFitting=1;fontFamily=Architects Daughter;fontSource=https%3A%2F%2Ffonts.googleapis.com%2Fcss%3Ffamily%3DArchitects%2BDaughter;fontSize=20;" vertex="1" parent="1">
          <mxGeometry x="430" y="410" width="230" height="70" as="geometry" />
        </mxCell>
        <mxCell id="XJ5a9MvPNYXjK2-B60-z-4" value="Security Transformation" style="rounded=1;whiteSpace=wrap;html=1;sketch=1;hachureGap=4;jiggle=2;curveFitting=1;fontFamily=Architects Daughter;fontSource=https%3A%2F%2Ffonts.googleapis.com%2Fcss%3Ffamily%3DArchitects%2BDaughter;fontSize=20;fillColor=#ffe6cc;strokeColor=#d79b00;" vertex="1" parent="1">
          <mxGeometry x="430" y="570" width="230" height="70" as="geometry" />
        </mxCell>
        <mxCell id="XJ5a9MvPNYXjK2-B60-z-15" value="Cloud Centre of Excellence" style="rounded=1;whiteSpace=wrap;html=1;sketch=1;hachureGap=4;jiggle=2;curveFitting=1;fontFamily=Architects Daughter;fontSource=https%3A%2F%2Ffonts.googleapis.com%2Fcss%3Ffamily%3DArchitects%2BDaughter;fontSize=20;verticalAlign=top;arcSize=11;" vertex="1" parent="1">
          <mxGeometry x="30" y="110" width="230" height="270" as="geometry" />
        </mxCell>
        <mxCell id="XJ5a9MvPNYXjK2-B60-z-8" value="Security&lt;div style=&quot;font-size: 16px;&quot;&gt;Champion&lt;/div&gt;" style="shape=umlActor;verticalLabelPosition=bottom;verticalAlign=top;html=1;outlineConnect=0;sketch=1;hachureGap=4;jiggle=2;curveFitting=1;fontFamily=Architects Daughter;fontSource=https%3A%2F%2Ffonts.googleapis.com%2Fcss%3Ffamily%3DArchitects%2BDaughter;fontSize=16;" vertex="1" parent="1">
          <mxGeometry x="190" y="270" width="30" height="60" as="geometry" />
        </mxCell>
        <mxCell id="XJ5a9MvPNYXjK2-B60-z-18" style="edgeStyle=orthogonalEdgeStyle;rounded=0;sketch=1;hachureGap=4;jiggle=2;curveFitting=1;orthogonalLoop=1;jettySize=auto;html=1;exitX=0.5;exitY=1;exitDx=0;exitDy=0;fontFamily=Architects Daughter;fontSource=https%3A%2F%2Ffonts.googleapis.com%2Fcss%3Ffamily%3DArchitects%2BDaughter;" edge="1" parent="1" source="XJ5a9MvPNYXjK2-B60-z-17" target="XJ5a9MvPNYXjK2-B60-z-8">
          <mxGeometry relative="1" as="geometry" />
        </mxCell>
        <mxCell id="XJ5a9MvPNYXjK2-B60-z-17" value="" style="shape=image;verticalLabelPosition=bottom;labelBackgroundColor=default;verticalAlign=top;aspect=fixed;imageAspect=0;image=https://cdn-icons-png.flaticon.com/512/32/32441.png;" vertex="1" parent="1">
          <mxGeometry x="50" y="180" width="92" height="92" as="geometry" />
        </mxCell>
        <mxCell id="XJ5a9MvPNYXjK2-B60-z-19" value="Define Architectures" style="rounded=1;whiteSpace=wrap;html=1;sketch=1;hachureGap=4;jiggle=2;curveFitting=1;fontFamily=Architects Daughter;fontSource=https%3A%2F%2Ffonts.googleapis.com%2Fcss%3Ffamily%3DArchitects%2BDaughter;fontSize=20;verticalAlign=middle;arcSize=11;" vertex="1" parent="1">
          <mxGeometry x="30" y="390" width="230" height="50" as="geometry" />
        </mxCell>
        <mxCell id="XJ5a9MvPNYXjK2-B60-z-20" value="Solution Selection" style="rounded=1;whiteSpace=wrap;html=1;sketch=1;hachureGap=4;jiggle=2;curveFitting=1;fontFamily=Architects Daughter;fontSource=https%3A%2F%2Ffonts.googleapis.com%2Fcss%3Ffamily%3DArchitects%2BDaughter;fontSize=20;verticalAlign=middle;arcSize=11;" vertex="1" parent="1">
          <mxGeometry x="30" y="450" width="230" height="50" as="geometry" />
        </mxCell>
        <mxCell id="XJ5a9MvPNYXjK2-B60-z-21" value="Cost Control" style="rounded=1;whiteSpace=wrap;html=1;sketch=1;hachureGap=4;jiggle=2;curveFitting=1;fontFamily=Architects Daughter;fontSource=https%3A%2F%2Ffonts.googleapis.com%2Fcss%3Ffamily%3DArchitects%2BDaughter;fontSize=20;verticalAlign=middle;arcSize=11;" vertex="1" parent="1">
          <mxGeometry x="30" y="510" width="230" height="50" as="geometry" />
        </mxCell>
        <mxCell id="XJ5a9MvPNYXjK2-B60-z-22" value="Security Design" style="rounded=1;whiteSpace=wrap;html=1;sketch=1;hachureGap=4;jiggle=2;curveFitting=1;fontFamily=Architects Daughter;fontSource=https%3A%2F%2Ffonts.googleapis.com%2Fcss%3Ffamily%3DArchitects%2BDaughter;fontSize=20;verticalAlign=middle;arcSize=11;fillColor=#f8cecc;strokeColor=#b85450;" vertex="1" parent="1">
          <mxGeometry x="30" y="570" width="230" height="50" as="geometry" />
        </mxCell>
        <mxCell id="XJ5a9MvPNYXjK2-B60-z-24" value="" style="shape=trapezoid;perimeter=trapezoidPerimeter;whiteSpace=wrap;html=1;fixedSize=1;sketch=1;hachureGap=4;jiggle=2;curveFitting=1;fontFamily=Architects Daughter;fontSource=https%3A%2F%2Ffonts.googleapis.com%2Fcss%3Ffamily%3DArchitects%2BDaughter;rotation=-90;size=120;" vertex="1" parent="1">
          <mxGeometry x="130" y="330" width="495" height="55" as="geometry" />
        </mxCell>
        <mxCell id="XJ5a9MvPNYXjK2-B60-z-25" value="" style="shape=trapezoid;perimeter=trapezoidPerimeter;whiteSpace=wrap;html=1;fixedSize=1;sketch=1;hachureGap=4;jiggle=2;curveFitting=1;fontFamily=Architects Daughter;fontSource=https%3A%2F%2Ffonts.googleapis.com%2Fcss%3Ffamily%3DArchitects%2BDaughter;rotation=-90;size=53.75;" vertex="1" parent="1">
          <mxGeometry x="200" y="347.5" width="243.75" height="20" as="geometry" />
        </mxCell>
        <mxCell id="XJ5a9MvPNYXjK2-B60-z-27" value="" style="shape=trapezoid;perimeter=trapezoidPerimeter;whiteSpace=wrap;html=1;fixedSize=1;sketch=1;hachureGap=4;jiggle=2;curveFitting=1;fontFamily=Architects Daughter;fontSource=https%3A%2F%2Ffonts.googleapis.com%2Fcss%3Ffamily%3DArchitects%2BDaughter;rotation=-90;size=53.75;" vertex="1" parent="1">
          <mxGeometry x="230" y="345" width="123.75" height="20" as="geometry" />
        </mxCell>
      </root>
    </mxGraphModel>
  </diagram>
</mxfile>
